<svg xmlns="http://www.w3.org/2000/svg" width="12" height="12" fill="none" viewBox="0 0 12 12">
  <path fill="#fff" d="M1.44 6.55 1.41 6C1.4 3.48 3.48 1.4 6 1.4a4.6 4.6 0 0 1 3.08 1.22l-.4.41c-.1.1-.13.23-.1.35.05.12.15.21.27.24.07.02 2.4.76 2.25.73.19.07.47-.13.41-.41 0-.07-.52-2.65-.5-2.5a.35.35 0 0 0-.24-.27.35.35 0 0 0-.34.09l-.35.34A6 6 0 0 0 0 6v.01c0 .2 0 .36.02.47.01.16.13.29.28.32l.72.14c.24.05.45-.15.42-.39M11.7 5.2l-.72-.14a.35.35 0 0 0-.42.38l.03.56c0 2.52-2.07 4.6-4.59 4.6a4.58 4.58 0 0 1-3.08-1.22l.4-.41c.1-.1.13-.23.1-.35a.37.37 0 0 0-.27-.24C3.08 8.36.75 7.62.9 7.65a.34.34 0 0 0-.32.1.35.35 0 0 0-.1.31l.5 2.48c.03.13.12.23.25.27.15.04.27 0 .35-.1l.33-.33A6.02 6.02 0 0 0 6 12c3.3 0 6-2.7 6-6v-.02c0-.16 0-.31-.02-.46a.35.35 0 0 0-.28-.32"/>
</svg>
