<svg xmlns="http://www.w3.org/2000/svg" xmlns:xlink="http://www.w3.org/1999/xlink">
  <defs>
    <symbol fill="none" viewBox="0 0 32 32" id="icon-vector"><path d="m8.549 25.83-.008.007-.007.008c-.556.596-1.054.957-1.467 1.136-.407.175-.695.161-.895.075-.204-.088-.429-.3-.609-.74-.18-.443-.296-1.077-.296-1.916V9.387c0-2.696.329-4.147 1.094-4.965.753-.804 2.08-1.155 4.599-1.155h10.08c2.519 0 3.846.35 4.596 1.155.764.817 1.09 2.268 1.084 4.964v15.001c0 .839-.115 1.473-.295 1.916-.18.442-.403.652-.606.74-.199.085-.486.1-.894-.076-.414-.178-.914-.54-1.473-1.136-.66-.708-1.519-1.057-2.382-1.01-.862.047-1.678.487-2.257 1.26l-1.345 1.797v.001c-.444.586-.983.831-1.475.831-.492 0-1.03-.245-1.474-.83v-.002l-1.345-1.797c-1.17-1.565-3.27-1.68-4.618-.259l-.007.007Zm-.11-11.163c0 1.065.87 1.933 1.934 1.933a1.937 1.937 0 0 0 1.934-1.933 1.937 1.937 0 0 0-1.934-1.933 1.937 1.937 0 0 0-1.933 1.933Zm0-5.333c0 1.064.87 1.933 1.934 1.933a1.937 1.937 0 0 0 1.934-1.933A1.937 1.937 0 0 0 10.373 7.4 1.937 1.937 0 0 0 8.44 9.334Zm5.867 6.933h7.334c.878 0 1.6-.722 1.6-1.6 0-.878-.722-1.6-1.6-1.6h-7.334c-.877 0-1.6.722-1.6 1.6 0 .878.723 1.6 1.6 1.6Zm0-5.333h7.334c.878 0 1.6-.722 1.6-1.6 0-.878-.722-1.6-1.6-1.6h-7.334c-.877 0-1.6.722-1.6 1.6 0 .878.723 1.6 1.6 1.6Z" stroke="currentColor" stroke-width="1.2"></path></symbol>
    <symbol viewBox="0 0 24 25.144" id="icon-comm"><path d="m8.571 23.998 5.058-9.146 2.1 3.9a10.844 10.844 0 0 0 4.845-9.038c0-3.028-2-6.031-4-8 3.919 1.639 7.43 5.773 7.43 10.285a10.856 10.856 0 0 1-6.549 9.964l1.977 3.179ZM-.001 13.14a10.86 10.86 0 0 1 6.548-9.965L4.571-.003l10.857 1.142-5.06 9.147-2.095-3.9a10.842 10.842 0 0 0-4.847 9.039c0 3.028 2 6.031 4 8C3.512 21.789 0 17.655 0 13.143Z"></path></symbol>
  </defs>
</svg>
