<svg width="394" height="394" viewBox="0 0 394 394" fill="none" xmlns="http://www.w3.org/2000/svg">
<path d="M368.42 199.658C368.499 194.573 368.351 189.487 367.978 184.415L197 197L368.42 199.658Z" fill="#FED700"/>
<path d="M367.557 179.616C367.041 174.557 366.301 169.523 365.338 164.529L197 197L367.557 179.616Z" fill="#1BB83D"/>
<path d="M284.445 49.5371C280.071 46.9431 275.583 44.545 270.995 42.3499L197 197L284.445 49.5371Z" fill="#1BB83D"/>
<path d="M248.053 33.337C243.198 31.8226 238.278 30.5249 233.307 29.4478L197 197L248.053 33.337Z" fill="#1BB83D"/>
<path d="M96.2511 58.2858C92.1362 61.2745 88.1564 64.4448 84.3233 67.7873L197 197L96.2511 58.2858Z" fill="#1BB83D"/>
<path d="M67.4726 84.6853C64.1408 88.5277 60.9816 92.5164 58.0045 96.6397L197 197L67.4726 84.6853Z" fill="#1BB83D"/>
<path d="M63.2104 304.202C66.3905 308.171 69.7457 311.996 73.2659 315.667L197 197L63.2104 304.202Z" fill="#1BB83D"/>
<path d="M242.412 362.317C247.316 360.97 252.158 359.405 256.923 357.627L197 197L242.412 362.317Z" fill="#1BB83D"/>
<path d="M279.856 347.089C284.308 344.631 288.649 341.976 292.866 339.133L197 197L279.856 347.089Z" fill="#1BB83D"/>
<path d="M366.937 219.66C367.609 214.619 368.056 209.55 368.278 204.469L197 197L366.937 219.66Z" fill="#1BB83D"/>
<path d="M91.8483 332.407C95.8651 335.526 100.019 338.465 104.297 341.215L197 197L91.8483 332.407Z" fill="#1BB83D"/>
<path d="M317.195 74.7495C313.568 71.1839 309.785 67.7816 305.856 64.5524L197 197L317.195 74.7495Z" fill="#FA305C"/>
<path d="M209.156 25.9907C204.083 25.6301 198.996 25.4954 193.911 25.587L197 197L209.156 25.9907Z" fill="#FA305C"/>
<path d="M168.868 27.883C163.851 28.7175 158.874 29.7749 153.951 31.0519L197 197L168.868 27.883Z" fill="#FA305C"/>
<path d="M131.306 38.645C126.609 40.5938 122 42.7506 117.495 45.1091L197 197L131.306 38.645Z" fill="#FA305C"/>
<path d="M45.111 117.491C42.7524 121.997 40.5954 126.605 38.6465 131.303L197 197L45.111 117.491Z" fill="#FA305C"/>
<path d="M30.9278 154.433C29.665 159.359 28.6221 164.34 27.8022 169.359L197 197L30.9278 154.433Z" fill="#FA305C"/>
<path d="M25.5789 194.407C25.502 199.492 25.6514 204.579 26.0266 209.65L197 197L25.5789 194.407Z" fill="#FA305C"/>
<path d="M29.4729 233.422C30.5534 238.392 31.8544 243.311 33.3722 248.165L197 197L29.4729 233.422Z" fill="#FA305C"/>
<path d="M42.3874 271.073C44.5847 275.66 46.9851 280.146 49.5813 284.519L197 197L42.3874 271.073Z" fill="#FA305C"/>
<path d="M125.8 352.957C130.426 355.069 135.144 356.974 139.94 358.667L197 197L125.8 352.957Z" fill="#FA305C"/>
<path d="M164.054 365.245C169.045 366.222 174.077 366.977 179.135 367.507L197 197L164.054 365.245Z" fill="#FA305C"/>
<path d="M204.188 368.29C209.269 368.077 214.339 367.637 219.381 366.973L197 197L204.188 368.29Z" fill="#FA305C"/>
<path d="M312.074 324.082C315.844 320.668 319.46 317.089 322.912 313.354L197 197L312.074 324.082Z" fill="#FA305C"/>
<path d="M338.397 293.947C341.273 289.752 343.961 285.432 346.453 280.998L197 197L338.397 293.947Z" fill="#FA305C"/>
<path d="M357.037 258.483C358.86 253.736 360.472 248.909 361.867 244.019L197 197L357.037 258.483Z" fill="#FA305C"/>
<path d="M341.823 105.249C339.101 100.953 336.19 96.7801 333.097 92.7428L197 197L341.823 105.249Z" fill="#FA305C"/>
<path d="M364.428 160.127C363.335 155.16 362.02 150.244 360.489 145.395L197 197L364.428 160.127Z" fill="#5C81AD"/>
<path d="M351.307 122.292C349.091 117.714 346.672 113.238 344.058 108.875L197 197L351.307 122.292Z" fill="#5C81AD"/>
<path d="M358.99 140.864C357.325 136.059 355.446 131.33 353.361 126.692L197 197L358.99 140.864Z" fill="#FA305C"/>
<path d="M330.695 89.6796C327.511 85.7136 324.153 81.8913 320.629 78.2239L197 197L330.695 89.6796Z" fill="#5C81AD"/>
<path d="M301.341 60.9671C297.305 57.8719 293.134 54.9578 288.84 52.2334L197 197L301.341 60.9671Z" fill="#5C81AD"/>
<path d="M267.271 40.6224C262.632 38.5378 257.903 36.6607 253.097 34.9966L197 197L267.271 40.6224Z" fill="#5C81AD"/>
<path d="M228.712 28.5176C223.714 27.5769 218.676 26.859 213.615 26.3662L197 197L228.712 28.5176Z" fill="#5C81AD"/>
<path d="M189.231 25.7353C184.15 25.9658 179.083 26.4222 174.043 27.1032L197 197L189.231 25.7353Z" fill="#5C81AD"/>
<path d="M150.435 32.0042C145.54 33.3855 140.709 34.984 135.957 36.7948L197 197L150.435 32.0042Z" fill="#5C81AD"/>
<path d="M112.994 47.5512C108.561 50.0432 104.24 52.7312 100.046 55.6073L197 197L112.994 47.5512Z" fill="#5C81AD"/>
<path d="M81.8902 69.95C78.1213 73.3647 74.5062 76.9454 71.0557 80.6815L197 197L81.8902 69.95Z" fill="#5C81AD"/>
<path d="M55.3164 100.472C52.453 104.675 49.7779 109.003 47.2993 113.444L197 197L55.3164 100.472Z" fill="#5C81AD"/>
<path d="M37.1222 135.105C35.2861 139.847 33.6619 144.67 32.2545 149.557L197 197L37.1222 135.105Z" fill="#5C81AD"/>
<path d="M27.1108 173.987C26.4281 179.027 25.97 184.095 25.7379 189.175L197 197L27.1108 173.987Z" fill="#5C81AD"/>
<path d="M26.4349 214.305C26.9482 219.365 27.6865 224.399 28.6474 229.393L197 197L26.4349 214.305Z" fill="#5C81AD"/>
<path d="M34.8058 252.542C36.4535 257.354 38.3144 262.09 40.3831 266.736L197 197L34.8058 252.542Z" fill="#5C81AD"/>
<path d="M51.9274 288.356C54.6375 292.659 57.5376 296.84 60.6194 300.886L197 197L51.9274 288.356Z" fill="#5C81AD"/>
<path d="M76.8184 319.263C80.4453 322.828 84.2291 326.23 88.1584 329.459L197 197L76.8184 319.263Z" fill="#5C81AD"/>
<path d="M108.141 343.615C112.491 346.251 116.955 348.692 121.522 350.931L197 197L108.141 343.615Z" fill="#5C81AD"/>
<path d="M144.242 360.121C149.081 361.686 153.987 363.035 158.946 364.164L197 197L144.242 360.121Z" fill="#5C81AD"/>
<path d="M183.567 367.913C188.637 368.312 193.722 368.485 198.807 368.431L197 197L183.567 367.913Z" fill="#5C81AD"/>
<path d="M222.819 366.485C227.847 365.719 232.838 364.73 237.778 363.52L197 197L222.819 366.485Z" fill="#5C81AD"/>
<path d="M261.494 355.847C266.207 353.934 270.831 351.812 275.355 349.487L197 197L261.494 355.847Z" fill="#5C81AD"/>
<path d="M296.273 336.774C300.419 333.829 304.433 330.701 308.301 327.399L197 197L296.273 336.774Z" fill="#5C81AD"/>
<path d="M326.144 309.755C329.489 305.924 332.662 301.946 335.653 297.833L197 197L326.144 309.755Z" fill="#5C81AD"/>
<path d="M349.055 276.191C351.404 271.68 353.551 267.067 355.49 262.366L197 197L349.055 276.191Z" fill="#5C81AD"/>
<path d="M363.294 238.69C364.531 233.757 365.548 228.771 366.341 223.748L197 197L363.294 238.69Z" fill="#5C81AD"/>
<circle cx="196.514" cy="197.917" r="163.443" transform="rotate(85 196.514 197.917)" fill="url(#paint0_radial)"/>
<defs>
<radialGradient id="paint0_radial" cx="0" cy="0" r="1" gradientUnits="userSpaceOnUse" gradientTransform="translate(196.514 197.917) rotate(90) scale(163.443)">
<stop offset="0.4375" stop-color="#0D131C"/>
<stop offset="0.864583" stop-color="#0D131C" stop-opacity="0.83"/>
<stop offset="1" stop-color="#0D131C" stop-opacity="0.67"/>
</radialGradient>
</defs>
</svg>
